<svg version="1" xmlns="http://www.w3.org/2000/svg" width="1562.667" height="1562.667" viewBox="0 0 1172.000000 1172.000000" preserveAspectRatio="xMidYMid meet"><metadata>Created by potrace 1.11, written by Peter Selinger 2001-2013</metadata><g fill="#000" stroke="none"><path d="M1501 7513 l-1502 -1378 4 -980 c3 -968 4 -981 25 -1077 86 -381 303 -687 651 -920 246 -164 538 -269 861 -308 117 -14 2168 -14 2298 1 681 74 1258 486 1456 1039 72 200 69 162 75 930 l6 695 477 3 476 2 5 -672 c4 -645 5 -677 26 -770 84 -379 302 -687 650 -920 248 -165 548 -272 866 -308 126 -14 2165 -13 2293 1 705 77 1292 512 1476 1094 57 180 56 164 56 1224 l0 976 -88 80 c-49 44 -709 649 -1467 1345 -758 696 -1392 1277 -1410 1292 l-33 27 -206 -224 c-113 -123 -206 -227 -206 -232 0 -4 558 -519 1239 -1143 682 -624 1240 -1138 1240 -1142 1 -5 -2211 -8 -4914 -8 -2703 0 -4915 3 -4914 8 0 4 558 518 1240 1142 681 624 1238 1140 1236 1147 -2 11 -353 398 -395 436 -19 17 -51 -12 -1521 -1360z" transform="translate(0.000000,1172.000000) scale(0.100000,-0.100000)"/></g></svg>